REM DIRINDEX 1\2,1\3,1\4,1\5
REM DIRNAME folder01,folder02,folder03,folder04,folder05
TITLE ""
FILE "P1Q_t_0432-0441.mp3" MP3
  TRACK 01 AUDIO
    TITLE "3:cjc005_2198"
    INDEX 01 00:00:00
  TRACK 02 AUDIO
    TITLE "0:"
    INDEX 01 00:00:72
  TRACK 03 AUDIO
    TITLE "4:cjc005_2199"
    INDEX 01 00:01:30
  TRACK 04 AUDIO
    TITLE "0:"
    INDEX 01 00:02:45
  TRACK 05 AUDIO
    TITLE "5:cjc005_2200"
    INDEX 01 00:02:71
  TRACK 06 AUDIO
    TITLE "0:"
    INDEX 01 00:08:34
  TRACK 07 AUDIO
    TITLE "3:cjc005_2201"
    INDEX 01 00:09:12
  TRACK 08 AUDIO
    TITLE "0:"
    INDEX 01 00:10:19
  TRACK 09 AUDIO
    TITLE "4:cjc005_2202"
    INDEX 01 00:10:49
  TRACK 10 AUDIO
    TITLE "0:"
    INDEX 01 00:11:64
  TRACK 11 AUDIO
    TITLE "5:cjc005_2203"
    INDEX 01 00:12:09
  TRACK 12 AUDIO
    TITLE "0:"
    INDEX 01 00:15:15
  TRACK 13 AUDIO
    TITLE "3:cjc005_2204"
    INDEX 01 00:15:74
  TRACK 14 AUDIO
    TITLE "0:"
    INDEX 01 00:17:18
  TRACK 15 AUDIO
    TITLE "4:cjc005_2205"
    INDEX 01 00:17:45
  TRACK 16 AUDIO
    TITLE "0:"
    INDEX 01 00:18:72
  TRACK 17 AUDIO
    TITLE "5:cjc005_2206"
    INDEX 01 00:19:18
  TRACK 18 AUDIO
    TITLE "0:"
    INDEX 01 00:23:10
  TRACK 19 AUDIO
    TITLE "3:cjc005_2207"
    INDEX 01 00:23:63
  TRACK 20 AUDIO
    TITLE "0:"
    INDEX 01 00:25:01
  TRACK 21 AUDIO
    TITLE "4:cjc005_2208"
    INDEX 01 00:25:31
  TRACK 22 AUDIO
    TITLE "0:"
    INDEX 01 00:26:73
  TRACK 23 AUDIO
    TITLE "5:cjc005_2209"
    INDEX 01 00:27:20
  TRACK 24 AUDIO
    TITLE "0:"
    INDEX 01 00:30:42
  TRACK 25 AUDIO
    TITLE "3:cjc005_2210"
    INDEX 01 00:31:22
  TRACK 26 AUDIO
    TITLE "0:"
    INDEX 01 00:32:39
  TRACK 27 AUDIO
    TITLE "4:cjc005_2211"
    INDEX 01 00:32:64
  TRACK 28 AUDIO
    TITLE "0:"
    INDEX 01 00:34:12
  TRACK 29 AUDIO
    TITLE "5:cjc005_2212"
    INDEX 01 00:34:34
  TRACK 30 AUDIO
    TITLE "0:"
    INDEX 01 00:38:28
  TRACK 31 AUDIO
    TITLE "3:cjc005_2213"
    INDEX 01 00:39:03
  TRACK 32 AUDIO
    TITLE "0:"
    INDEX 01 00:40:21
  TRACK 33 AUDIO
    TITLE "4:cjc005_2214"
    INDEX 01 00:40:40
  TRACK 34 AUDIO
    TITLE "0:"
    INDEX 01 00:41:55
  TRACK 35 AUDIO
    TITLE "5:cjc005_2215"
    INDEX 01 00:42:04
  TRACK 36 AUDIO
    TITLE "0:"
    INDEX 01 00:45:51
  TRACK 37 AUDIO
    TITLE "3:cjc005_2216"
    INDEX 01 00:46:29
  TRACK 38 AUDIO
    TITLE "0:"
    INDEX 01 00:47:66
  TRACK 39 AUDIO
    TITLE "4:cjc005_2217"
    INDEX 01 00:48:12
  TRACK 40 AUDIO
    TITLE "0:"
    INDEX 01 00:49:49
  TRACK 41 AUDIO
    TITLE "5:cjc005_2218"
    INDEX 01 00:49:67
  TRACK 42 AUDIO
    TITLE "0:"
    INDEX 01 00:54:27
  TRACK 43 AUDIO
    TITLE "3:cjc005_2219"
    INDEX 01 00:55:04
  TRACK 44 AUDIO
    TITLE "0:"
    INDEX 01 00:56:16
  TRACK 45 AUDIO
    TITLE "4:cjc005_2220"
    INDEX 01 00:56:35
  TRACK 46 AUDIO
    TITLE "0:"
    INDEX 01 00:57:58
  TRACK 47 AUDIO
    TITLE "5:cjc005_2221"
    INDEX 01 00:58:07
  TRACK 48 AUDIO
    TITLE "0:"
    INDEX 01 01:01:54
  TRACK 49 AUDIO
    TITLE "3:cjc005_2222"
    INDEX 01 01:02:26
  TRACK 50 AUDIO
    TITLE "0:"
    INDEX 01 01:03:45
  TRACK 51 AUDIO
    TITLE "4:cjc005_2223"
    INDEX 01 01:03:69
  TRACK 52 AUDIO
    TITLE "0:"
    INDEX 01 01:05:19
  TRACK 53 AUDIO
    TITLE "5:cjc005_2224"
    INDEX 01 01:05:42
  TRACK 54 AUDIO
    TITLE "0:"
    INDEX 01 01:10:37
  TRACK 55 AUDIO
    TITLE "3:cjc005_2225"
    INDEX 01 01:11:07
  TRACK 56 AUDIO
    TITLE "0:"
    INDEX 01 01:12:28
  TRACK 57 AUDIO
    TITLE "4:cjc005_2226"
    INDEX 01 01:12:56
  TRACK 58 AUDIO
    TITLE "0:"
    INDEX 01 01:14:19
  TRACK 59 AUDIO
    TITLE "5:cjc005_2227"
    INDEX 01 01:14:43
  TRACK 60 AUDIO
    TITLE "0:"
    INDEX 01 01:19:03
